<?xml version="1.0" encoding="UTF-8" standalone="no"?>
<svg
   xmlns:dc="http://purl.org/dc/elements/1.1/"
   xmlns:cc="http://creativecommons.org/ns#"
   xmlns:rdf="http://www.w3.org/1999/02/22-rdf-syntax-ns#"
   xmlns:svg="http://www.w3.org/2000/svg"
   xmlns="http://www.w3.org/2000/svg"
   id="svg32"
   style="fill-rule:evenodd;clip-rule:evenodd;stroke-linejoin:round;stroke-miterlimit:2;"
   xml:space="preserve"
   version="1.1"
   viewBox="0 0 256 256"
   height="100%"
   width="100%"><metadata
   id="metadata38"><rdf:RDF><cc:Work
       rdf:about=""><dc:format>image/svg+xml</dc:format><dc:type
         rdf:resource="http://purl.org/dc/dcmitype/StillImage" /><dc:title></dc:title></cc:Work></rdf:RDF></metadata><defs
   id="defs36" />
    
    <g
   id="g30"
   transform="matrix(1.4404566,0,0,1.4404566,-286.84433,-271.20051)">
        <g
   style="fill:#96d04a;fill-opacity:1"
   id="g8"
   transform="rotate(59.999988,288.00024,166.27682)">
            <path
   id="path6"
   style="fill:#96d04a;fill-opacity:1"
   d="m 390.877,136.653 c -1.42,-2.46 -4.046,-3.976 -6.887,-3.976 -2.841,0 -5.466,1.516 -6.887,3.976 -4.01,6.946 -8.957,15.515 -12.499,21.65 -2.855,4.945 -2.855,11.037 0,15.982 3.538,6.129 8.48,14.687 12.488,21.63 1.423,2.464 4.052,3.983 6.898,3.983 2.846,0 5.476,-1.519 6.899,-3.983 4.008,-6.943 8.949,-15.501 12.488,-21.631 2.855,-4.944 2.855,-11.036 0,-15.981 -3.542,-6.135 -8.489,-14.704 -12.5,-21.65 z" />
        </g>
        <g
   style="fill:#96d04a;fill-opacity:1"
   id="g12"
   transform="translate(-96,166.277)">
            <path
   id="path10"
   style="fill:#96d04a;fill-opacity:1"
   d="m 390.877,136.653 c -1.42,-2.46 -4.046,-3.976 -6.887,-3.976 -2.841,0 -5.466,1.516 -6.887,3.976 -4.01,6.946 -8.957,15.515 -12.499,21.65 -2.855,4.945 -2.855,11.037 0,15.982 3.538,6.129 8.48,14.687 12.488,21.63 1.423,2.464 4.052,3.983 6.898,3.983 2.846,0 5.476,-1.519 6.899,-3.983 4.008,-6.943 8.949,-15.501 12.488,-21.631 2.855,-4.944 2.855,-11.036 0,-15.981 -3.542,-6.135 -8.489,-14.704 -12.5,-21.65 z" />
        </g>
        <g
   style="fill:#96d04a;fill-opacity:1"
   id="g16"
   transform="rotate(-59.999988,384.00039,332.55413)">
            <path
   id="path14"
   style="fill:#96d04a;fill-opacity:1"
   d="m 390.877,136.653 c -1.42,-2.46 -4.046,-3.976 -6.887,-3.976 -2.841,0 -5.466,1.516 -6.887,3.976 -4.01,6.946 -8.957,15.515 -12.499,21.65 -2.855,4.945 -2.855,11.037 0,15.982 3.538,6.129 8.48,14.687 12.488,21.63 1.423,2.464 4.052,3.983 6.898,3.983 2.846,0 5.476,-1.519 6.899,-3.983 4.008,-6.943 8.949,-15.501 12.488,-21.631 2.855,-4.944 2.855,-11.036 0,-15.981 -3.542,-6.135 -8.489,-14.704 -12.5,-21.65 z" />
        </g>
        <g
   id="g20"
   transform="translate(-95.9902,55.4086)">
            <path
   id="path18"
   style="fill:#96d04a"
   d="m 390.877,136.653 c -1.42,-2.46 -4.046,-3.976 -6.887,-3.976 -2.841,0 -5.466,1.516 -6.887,3.976 -4.01,6.946 -8.957,15.515 -12.499,21.65 -2.855,4.945 -2.855,11.037 0,15.982 3.538,6.129 8.48,14.687 12.488,21.63 1.423,2.464 4.052,3.983 6.898,3.983 2.846,0 5.476,-1.519 6.899,-3.983 4.008,-6.943 8.949,-15.501 12.488,-21.631 2.855,-4.944 2.855,-11.036 0,-15.981 -3.542,-6.135 -8.489,-14.704 -12.5,-21.65 z m -5.196,3 c -0.349,-0.604 -0.993,-0.976 -1.691,-0.976 -0.697,0 -1.342,0.372 -1.691,0.976 -4.01,6.946 -8.957,15.515 -12.499,21.65 -1.783,3.088 -1.783,6.893 0,9.982 3.539,6.129 8.48,14.687 12.488,21.63 0.351,0.608 1,0.983 1.702,0.983 0.702,0 1.351,-0.375 1.702,-0.983 4.009,-6.943 8.95,-15.501 12.489,-21.631 1.783,-3.088 1.783,-6.893 0,-9.981 z" />
        </g>
        <g
   id="g24"
   transform="rotate(-59.999988,479.99989,277.12819)">
            <path
   id="path22"
   style="fill:#96d04a"
   d="m 390.877,136.653 c -1.42,-2.46 -4.046,-3.976 -6.887,-3.976 -2.841,0 -5.466,1.516 -6.887,3.976 -4.01,6.946 -8.957,15.515 -12.499,21.65 -2.855,4.945 -2.855,11.037 0,15.982 3.538,6.129 8.48,14.687 12.488,21.63 1.423,2.464 4.052,3.983 6.898,3.983 2.846,0 5.476,-1.519 6.899,-3.983 4.008,-6.943 8.949,-15.501 12.488,-21.631 2.855,-4.944 2.855,-11.036 0,-15.981 -3.542,-6.135 -8.489,-14.704 -12.5,-21.65 z m -5.196,3 c -0.349,-0.604 -0.993,-0.976 -1.691,-0.976 -0.697,0 -1.342,0.372 -1.691,0.976 -4.01,6.946 -8.957,15.515 -12.499,21.65 -1.783,3.088 -1.783,6.893 0,9.982 3.539,6.129 8.48,14.687 12.488,21.63 0.351,0.608 1,0.983 1.702,0.983 0.702,0 1.351,-0.375 1.702,-0.983 4.009,-6.943 8.95,-15.501 12.489,-21.631 1.783,-3.088 1.783,-6.893 0,-9.981 z" />
        </g>
        <g
   id="g28"
   transform="rotate(59.999988,191.99987,110.85138)">
            <path
   id="path26"
   style="fill:#96d04a"
   d="m 390.877,136.653 c -1.42,-2.46 -4.046,-3.976 -6.887,-3.976 -2.841,0 -5.466,1.516 -6.887,3.976 -4.01,6.946 -8.957,15.515 -12.499,21.65 -2.855,4.945 -2.855,11.037 0,15.982 3.538,6.129 8.48,14.687 12.488,21.63 1.423,2.464 4.052,3.983 6.898,3.983 2.846,0 5.476,-1.519 6.899,-3.983 4.008,-6.943 8.949,-15.501 12.488,-21.631 2.855,-4.944 2.855,-11.036 0,-15.981 -3.542,-6.135 -8.489,-14.704 -12.5,-21.65 z m -5.196,3 c -0.349,-0.604 -0.993,-0.976 -1.691,-0.976 -0.697,0 -1.342,0.372 -1.691,0.976 -4.01,6.946 -8.957,15.515 -12.499,21.65 -1.783,3.088 -1.783,6.893 0,9.982 3.539,6.129 8.48,14.687 12.488,21.63 0.351,0.608 1,0.983 1.702,0.983 0.702,0 1.351,-0.375 1.702,-0.983 4.009,-6.943 8.95,-15.501 12.489,-21.631 1.783,-3.088 1.783,-6.893 0,-9.981 z" />
        </g>
    </g>
</svg>